<svg id="visual" viewBox="0 0 960 300" width="960" height="300" xmlns="http://www.w3.org/2000/svg" xmlns:xlink="http://www.w3.org/1999/xlink" version="1.1"><path d="M0 203L107 188L213 154L320 199L427 186L533 173L640 189L747 197L853 171L960 163L960 301L853 301L747 301L640 301L533 301L427 301L320 301L213 301L107 301L0 301Z" fill="#005935"></path><path d="M0 214L107 190L213 219L320 192L427 190L533 178L640 194L747 204L853 188L960 197L960 301L853 301L747 301L640 301L533 301L427 301L320 301L213 301L107 301L0 301Z" fill="#2a4d1a"></path><path d="M0 218L107 203L213 216L320 223L427 233L533 202L640 202L747 233L853 237L960 206L960 301L853 301L747 301L640 301L533 301L427 301L320 301L213 301L107 301L0 301Z" fill="#3a4006"></path><path d="M0 215L107 230L213 216L320 239L427 226L533 250L640 234L747 253L853 239L960 240L960 301L853 301L747 301L640 301L533 301L427 301L320 301L213 301L107 301L0 301Z" fill="#443200"></path><path d="M0 250L107 256L213 261L320 246L427 259L533 246L640 252L747 256L853 261L960 248L960 301L853 301L747 301L640 301L533 301L427 301L320 301L213 301L107 301L0 301Z" fill="#4b2100"></path><path d="M0 263L107 283L213 274L320 266L427 265L533 274L640 275L747 265L853 273L960 269L960 301L853 301L747 301L640 301L533 301L427 301L320 301L213 301L107 301L0 301Z" fill="#4d0c00"></path></svg>