<svg id="visual" viewBox="0 0 900 138" width="900" height="138" xmlns="http://www.w3.org/2000/svg" xmlns:xlink="http://www.w3.org/1999/xlink" version="1.1"><path d="M0 82L21.5 82.3C43 82.7 86 83.3 128.8 85.2C171.7 87 214.3 90 257.2 94.8C300 99.7 343 106.3 385.8 109.7C428.7 113 471.3 113 514.2 106.3C557 99.7 600 86.3 642.8 86.3C685.7 86.3 728.3 99.7 771.2 105.5C814 111.3 857 109.7 878.5 108.8L900 108L900 0L878.5 0C857 0 814 0 771.2 0C728.3 0 685.7 0 642.8 0C600 0 557 0 514.2 0C471.3 0 428.7 0 385.8 0C343 0 300 0 257.2 0C214.3 0 171.7 0 128.8 0C86 0 43 0 21.5 0L0 0Z" fill="#d2d2d2"></path><path d="M0 92L21.5 87.3C43 82.7 86 73.3 128.8 68.7C171.7 64 214.3 64 257.2 68.2C300 72.3 343 80.7 385.8 83.2C428.7 85.7 471.3 82.3 514.2 80.2C557 78 600 77 642.8 79.3C685.7 81.7 728.3 87.3 771.2 86.8C814 86.3 857 79.7 878.5 76.3L900 73L900 0L878.5 0C857 0 814 0 771.2 0C728.3 0 685.7 0 642.8 0C600 0 557 0 514.2 0C471.3 0 428.7 0 385.8 0C343 0 300 0 257.2 0C214.3 0 171.7 0 128.8 0C86 0 43 0 21.5 0L0 0Z" fill="#aeaeae"></path><path d="M0 54L21.5 56.7C43 59.3 86 64.7 128.8 66.2C171.7 67.7 214.3 65.3 257.2 62.5C300 59.7 343 56.3 385.8 56.3C428.7 56.3 471.3 59.7 514.2 59.8C557 60 600 57 642.8 55.8C685.7 54.7 728.3 55.3 771.2 53.8C814 52.3 857 48.7 878.5 46.8L900 45L900 0L878.5 0C857 0 814 0 771.2 0C728.3 0 685.7 0 642.8 0C600 0 557 0 514.2 0C471.3 0 428.7 0 385.8 0C343 0 300 0 257.2 0C214.3 0 171.7 0 128.8 0C86 0 43 0 21.5 0L0 0Z" fill="#8b8b8b"></path><path d="M0 26L21.5 28.5C43 31 86 36 128.8 37C171.7 38 214.3 35 257.2 32.8C300 30.7 343 29.3 385.8 30C428.7 30.7 471.3 33.3 514.2 36.5C557 39.7 600 43.3 642.8 44.2C685.7 45 728.3 43 771.2 43.3C814 43.7 857 46.3 878.5 47.7L900 49L900 0L878.5 0C857 0 814 0 771.2 0C728.3 0 685.7 0 642.8 0C600 0 557 0 514.2 0C471.3 0 428.7 0 385.8 0C343 0 300 0 257.2 0C214.3 0 171.7 0 128.8 0C86 0 43 0 21.5 0L0 0Z" fill="#6a6a6a"></path><path d="M0 18L21.5 18C43 18 86 18 128.8 17.3C171.7 16.7 214.3 15.3 257.2 16.8C300 18.3 343 22.7 385.8 22.5C428.7 22.3 471.3 17.7 514.2 16.7C557 15.7 600 18.3 642.8 20C685.7 21.7 728.3 22.3 771.2 22.7C814 23 857 23 878.5 23L900 23L900 0L878.5 0C857 0 814 0 771.2 0C728.3 0 685.7 0 642.8 0C600 0 557 0 514.2 0C471.3 0 428.7 0 385.8 0C343 0 300 0 257.2 0C214.3 0 171.7 0 128.8 0C86 0 43 0 21.5 0L0 0Z" fill="#4b4b4b"></path></svg>