<svg id="visual" viewBox="0 0 960 300" width="960" height="300" xmlns="http://www.w3.org/2000/svg" xmlns:xlink="http://www.w3.org/1999/xlink" version="1.1"><path d="M0 132L17.8 131.3C35.7 130.7 71.3 129.3 106.8 130.7C142.3 132 177.7 136 213.2 137.3C248.7 138.7 284.3 137.3 320 130.5C355.7 123.7 391.3 111.3 426.8 110.5C462.3 109.7 497.7 120.3 533.2 120.5C568.7 120.7 604.3 110.3 640 109.8C675.7 109.3 711.3 118.7 746.8 123.2C782.3 127.7 817.7 127.3 853.2 128C888.7 128.7 924.3 130.3 942.2 131.2L960 132L960 0L942.2 0C924.3 0 888.7 0 853.2 0C817.7 0 782.3 0 746.8 0C711.3 0 675.7 0 640 0C604.3 0 568.7 0 533.2 0C497.7 0 462.3 0 426.8 0C391.3 0 355.7 0 320 0C284.3 0 248.7 0 213.2 0C177.7 0 142.3 0 106.8 0C71.3 0 35.7 0 17.8 0L0 0Z" fill="#cfcfce"></path><path d="M0 107L17.8 104.8C35.7 102.7 71.3 98.3 106.8 100.2C142.3 102 177.7 110 213.2 113.7C248.7 117.3 284.3 116.7 320 114.8C355.7 113 391.3 110 426.8 107.3C462.3 104.7 497.7 102.3 533.2 103.7C568.7 105 604.3 110 640 113.7C675.7 117.3 711.3 119.7 746.8 116.8C782.3 114 817.7 106 853.2 103C888.7 100 924.3 102 942.2 103L960 104L960 0L942.2 0C924.3 0 888.7 0 853.2 0C817.7 0 782.3 0 746.8 0C711.3 0 675.7 0 640 0C604.3 0 568.7 0 533.2 0C497.7 0 462.3 0 426.8 0C391.3 0 355.7 0 320 0C284.3 0 248.7 0 213.2 0C177.7 0 142.3 0 106.8 0C71.3 0 35.7 0 17.8 0L0 0Z" fill="#afafae"></path><path d="M0 72L17.8 73.8C35.7 75.7 71.3 79.3 106.8 81.8C142.3 84.3 177.7 85.7 213.2 84.7C248.7 83.7 284.3 80.3 320 82.3C355.7 84.3 391.3 91.7 426.8 90C462.3 88.3 497.7 77.7 533.2 75.7C568.7 73.7 604.3 80.3 640 84.7C675.7 89 711.3 91 746.8 92.3C782.3 93.7 817.7 94.3 853.2 94.5C888.7 94.7 924.3 94.3 942.2 94.2L960 94L960 0L942.2 0C924.3 0 888.7 0 853.2 0C817.7 0 782.3 0 746.8 0C711.3 0 675.7 0 640 0C604.3 0 568.7 0 533.2 0C497.7 0 462.3 0 426.8 0C391.3 0 355.7 0 320 0C284.3 0 248.7 0 213.2 0C177.7 0 142.3 0 106.8 0C71.3 0 35.7 0 17.8 0L0 0Z" fill="#8f8f8f"></path><path d="M0 60L17.8 61.8C35.7 63.7 71.3 67.3 106.8 66.3C142.3 65.3 177.7 59.7 213.2 55.8C248.7 52 284.3 50 320 52.5C355.7 55 391.3 62 426.8 63C462.3 64 497.7 59 533.2 58.2C568.7 57.3 604.3 60.7 640 61C675.7 61.3 711.3 58.7 746.8 58.7C782.3 58.7 817.7 61.3 853.2 60.7C888.7 60 924.3 56 942.2 54L960 52L960 0L942.2 0C924.3 0 888.7 0 853.2 0C817.7 0 782.3 0 746.8 0C711.3 0 675.7 0 640 0C604.3 0 568.7 0 533.2 0C497.7 0 462.3 0 426.8 0C391.3 0 355.7 0 320 0C284.3 0 248.7 0 213.2 0C177.7 0 142.3 0 106.8 0C71.3 0 35.7 0 17.8 0L0 0Z" fill="#717171"></path><path d="M0 55L17.8 52.2C35.7 49.3 71.3 43.7 106.8 39.8C142.3 36 177.7 34 213.2 34.2C248.7 34.3 284.3 36.7 320 40C355.7 43.3 391.3 47.7 426.8 47.2C462.3 46.7 497.7 41.3 533.2 40.8C568.7 40.3 604.3 44.7 640 48.2C675.7 51.7 711.3 54.3 746.8 54.8C782.3 55.3 817.7 53.7 853.2 50.5C888.7 47.3 924.3 42.7 942.2 40.3L960 38L960 0L942.2 0C924.3 0 888.7 0 853.2 0C817.7 0 782.3 0 746.8 0C711.3 0 675.7 0 640 0C604.3 0 568.7 0 533.2 0C497.7 0 462.3 0 426.8 0C391.3 0 355.7 0 320 0C284.3 0 248.7 0 213.2 0C177.7 0 142.3 0 106.8 0C71.3 0 35.7 0 17.8 0L0 0Z" fill="#555555"></path><path d="M0 29L17.8 29.2C35.7 29.3 71.3 29.7 106.8 29.7C142.3 29.7 177.7 29.3 213.2 27.5C248.7 25.7 284.3 22.3 320 21.8C355.7 21.3 391.3 23.7 426.8 24.2C462.3 24.7 497.7 23.3 533.2 24.5C568.7 25.7 604.3 29.3 640 28.2C675.7 27 711.3 21 746.8 20.3C782.3 19.7 817.7 24.3 853.2 26.3C888.7 28.3 924.3 27.7 942.2 27.3L960 27L960 0L942.2 0C924.3 0 888.7 0 853.2 0C817.7 0 782.3 0 746.8 0C711.3 0 675.7 0 640 0C604.3 0 568.7 0 533.2 0C497.7 0 462.3 0 426.8 0C391.3 0 355.7 0 320 0C284.3 0 248.7 0 213.2 0C177.7 0 142.3 0 106.8 0C71.3 0 35.7 0 17.8 0L0 0Z" fill="#3a3a3a"></path></svg>